<svg xmlns="http://www.w3.org/2000/svg" version="1.1" xmlns:xlink="http://www.w3.org/1999/xlink" xmlns:svgjs="http://svgjs.dev/svgjs" width="1000" height="176" viewBox="0 0 1000 176"><g transform="matrix(1,0,0,1,-0.6060500936886797,-0.3042548655814272)"><svg viewBox="0 0 396 70" data-background-color="#ffffff" preserveAspectRatio="xMidYMid meet" height="176" width="1000" xmlns="http://www.w3.org/2000/svg" xmlns:xlink="http://www.w3.org/1999/xlink"><g id="tight-bounds" transform="matrix(1,0,0,1,0.23999583710070738,0.12101339829476387)"><svg viewBox="0 0 395.52 69.75797320341049" height="69.75797320341049" width="395.52"><g><svg viewBox="0 0 395.52 69.75797320341049" height="69.75797320341049" width="395.52"><g><svg viewBox="0 0 395.52 69.75797320341049" height="69.75797320341049" width="395.52"><g id="textblocktransform"><svg viewBox="0 0 395.52 69.75797320341049" height="69.75797320341049" width="395.52" id="textblock"><g><svg viewBox="0 0 395.52 69.75797320341049" height="69.75797320341049" width="395.52"><g transform="matrix(1,0,0,1,0,0)"><svg width="395.52" viewBox="1.5499999523162842 -35.599998474121094 205.22999572753906 36.19999694824219" height="69.75797320341049" data-palette-color="#0023ff"><path d="M10.6 0.6L10.6 0.6Q4.45 0.6 1.55-4.65L1.55-4.65 4.55-6.75Q5.65-4.8 7.05-3.93 8.45-3.05 10.2-3.05L10.2-3.05Q12.85-3.05 14.15-4.67 15.45-6.3 15.45-10.05L15.45-10.05 15.45-32.8 19.65-32.8 19.65-9.65Q19.65-7.55 19.13-5.68 18.6-3.8 17.53-2.4 16.45-1 14.73-0.2 13 0.6 10.6 0.6ZM37.55 0.6L37.55 0.6Q35.3 0.6 33.27-0.25 31.25-1.1 29.7-2.73 28.15-4.35 27.22-6.73 26.3-9.1 26.3-12.1L26.3-12.1Q26.3-15.15 27.22-17.53 28.15-19.9 29.7-21.55 31.25-23.2 33.27-24.05 35.3-24.9 37.55-24.9L37.55-24.9Q39.8-24.9 41.82-24.05 43.85-23.2 45.4-21.55 46.95-19.9 47.87-17.53 48.8-15.15 48.8-12.1L48.8-12.1Q48.8-9.1 47.87-6.73 46.95-4.35 45.4-2.73 43.85-1.1 41.82-0.25 39.8 0.6 37.55 0.6ZM37.55-2.8L37.55-2.8Q39.1-2.8 40.4-3.48 41.7-4.15 42.62-5.38 43.55-6.6 44.05-8.3 44.55-10 44.55-12.1L44.55-12.1Q44.55-14.2 44.05-15.93 43.55-17.65 42.62-18.9 41.7-20.15 40.4-20.83 39.1-21.5 37.55-21.5L37.55-21.5Q36-21.5 34.7-20.83 33.4-20.15 32.47-18.9 31.55-17.65 31.05-15.93 30.55-14.2 30.55-12.1L30.55-12.1Q30.55-10 31.05-8.3 31.55-6.6 32.47-5.38 33.4-4.15 34.7-3.48 36-2.8 37.55-2.8ZM65.94 0.6L65.94 0.6Q64.25 0.6 62.42-0.23 60.59-1.05 58.99-2.5L58.99-2.5 58.84-2.5 58.49 0 55.2 0 55.2-35.6 59.3-35.6 59.3-25.9 59.2-21.5Q60.84-22.95 62.8-23.93 64.75-24.9 66.8-24.9L66.8-24.9Q69.14-24.9 70.94-24.03 72.75-23.15 73.97-21.53 75.19-19.9 75.82-17.63 76.44-15.35 76.44-12.55L76.44-12.55Q76.44-9.45 75.59-7 74.75-4.55 73.3-2.85 71.84-1.15 69.94-0.28 68.05 0.6 65.94 0.6ZM65.25-2.85L65.25-2.85Q66.75-2.85 68.02-3.53 69.3-4.2 70.22-5.43 71.14-6.65 71.67-8.45 72.19-10.25 72.19-12.5L72.19-12.5Q72.19-14.5 71.84-16.15 71.5-17.8 70.72-18.98 69.94-20.15 68.72-20.8 67.5-21.45 65.8-21.45L65.8-21.45Q62.84-21.45 59.3-18.15L59.3-18.15 59.3-5.4Q60.89-4 62.47-3.43 64.05-2.85 65.25-2.85ZM91.39 0L87.19 0 87.19-29.3 77.29-29.3 77.29-32.8 101.29-32.8 101.29-29.3 91.39-29.3 91.39 0ZM108.59 0L104.49 0 104.49-24.3 107.89-24.3 108.24-19.9 108.39-19.9Q109.64-22.2 111.42-23.55 113.19-24.9 115.29-24.9L115.29-24.9Q116.74-24.9 117.89-24.4L117.89-24.4 117.09-20.8Q116.49-21 115.99-21.1 115.49-21.2 114.74-21.2L114.74-21.2Q113.19-21.2 111.52-19.95 109.84-18.7 108.59-15.6L108.59-15.6 108.59 0ZM126.24 0.6L126.24 0.6Q123.19 0.6 121.16-1.2 119.14-3 119.14-6.3L119.14-6.3Q119.14-10.3 122.69-12.43 126.24-14.55 134.04-15.4L134.04-15.4Q134.04-16.55 133.81-17.65 133.59-18.75 133.04-19.6 132.49-20.45 131.51-20.98 130.54-21.5 129.04-21.5L129.04-21.5Q126.94-21.5 125.09-20.7 123.24-19.9 121.79-18.9L121.79-18.9 120.19-21.75Q121.89-22.85 124.34-23.88 126.79-24.9 129.74-24.9L129.74-24.9Q134.19-24.9 136.19-22.18 138.19-19.45 138.19-14.9L138.19-14.9 138.19 0 134.79 0 134.44-2.9 134.29-2.9Q132.54-1.45 130.54-0.43 128.54 0.6 126.24 0.6ZM127.44-2.7L127.44-2.7Q129.19-2.7 130.74-3.53 132.29-4.35 134.04-5.95L134.04-5.95 134.04-12.7Q130.99-12.3 128.91-11.75 126.84-11.2 125.56-10.45 124.29-9.7 123.71-8.72 123.14-7.75 123.14-6.6L123.14-6.6Q123.14-4.5 124.39-3.6 125.64-2.7 127.44-2.7ZM155.44 0.6L155.44 0.6Q153.04 0.6 150.94-0.25 148.84-1.1 147.31-2.73 145.79-4.35 144.91-6.73 144.04-9.1 144.04-12.1L144.04-12.1Q144.04-15.15 144.99-17.53 145.94-19.9 147.54-21.55 149.14-23.2 151.26-24.05 153.39-24.9 155.74-24.9L155.74-24.9Q158.14-24.9 159.84-24.05 161.54-23.2 162.84-22.05L162.84-22.05 160.74-19.35Q159.69-20.3 158.51-20.9 157.34-21.5 155.89-21.5L155.89-21.5Q154.24-21.5 152.84-20.83 151.44-20.15 150.44-18.9 149.44-17.65 148.86-15.93 148.29-14.2 148.29-12.1L148.29-12.1Q148.29-10 148.84-8.3 149.39-6.6 150.36-5.38 151.34-4.15 152.74-3.48 154.14-2.8 155.79-2.8L155.79-2.8Q157.49-2.8 158.91-3.53 160.34-4.25 161.49-5.25L161.49-5.25 163.29-2.5Q161.64-1.05 159.64-0.23 157.64 0.6 155.44 0.6ZM172.68 0L168.63 0 168.63-35.6 172.68-35.6 172.68-11.5 172.83-11.5 183.18-24.3 187.73-24.3 179.58-14.55 188.83 0 184.33 0 177.23-11.7 172.68-6.4 172.68 0ZM197.48 0L193.38 0 193.38-24.3 196.78-24.3 197.13-19.9 197.28-19.9Q198.53-22.2 200.31-23.55 202.08-24.9 204.18-24.9L204.18-24.9Q205.63-24.9 206.78-24.4L206.78-24.4 205.98-20.8Q205.38-21 204.88-21.1 204.38-21.2 203.63-21.2L203.63-21.2Q202.08-21.2 200.41-19.95 198.73-18.7 197.48-15.6L197.48-15.6 197.48 0Z" opacity="1" transform="matrix(1,0,0,1,0,0)" fill="#0023ff" class="undefined-text-0" data-fill-palette-color="primary" id="text-0"></path></svg></g></svg></g></svg></g></svg></g></svg></g><defs></defs></svg><rect width="395.52" height="69.75797320341049" fill="none" stroke="none" visibility="hidden"></rect></g></svg></g></svg>